<mxfile host="app.diagrams.net" modified="2023-09-17T12:20:02.649Z" agent="Mozilla/5.0 (Macintosh; Intel Mac OS X 10_15_7) AppleWebKit/537.36 (KHTML, like Gecko) Chrome/116.0.0.0 Safari/537.36" etag="GrIq_ICnb3b41YHmFAgP" version="21.7.5" type="github" pages="2">
  <diagram id="C6W7_-lyYOECEeJ5wVP4" name="重构模型关系">
    <mxGraphModel dx="1194" dy="760" grid="1" gridSize="10" guides="1" tooltips="1" connect="1" arrows="1" fold="1" page="1" pageScale="1" pageWidth="827" pageHeight="1169" math="0" shadow="0">
      <root>
        <mxCell id="0" />
        <mxCell id="1" parent="0" />
      </root>
    </mxGraphModel>
  </diagram>
  <diagram name="处理引擎" id="JUj2DGuPXYjNp3rDiJtu">
    <mxGraphModel dx="2232" dy="894" grid="1" gridSize="10" guides="1" tooltips="1" connect="1" arrows="1" fold="1" page="1" pageScale="1" pageWidth="827" pageHeight="1169" math="0" shadow="0">
      <root>
        <mxCell id="0" />
        <mxCell id="1" parent="0" />
        <mxCell id="FAs4rgALgp9-eol_j8uM-28" value="控制面板V1" style="rounded=0;whiteSpace=wrap;html=1;verticalAlign=top;" vertex="1" parent="1">
          <mxGeometry x="70" y="300" width="1200" height="110" as="geometry" />
        </mxCell>
        <mxCell id="FAs4rgALgp9-eol_j8uM-27" value="运行时" style="rounded=0;whiteSpace=wrap;html=1;verticalAlign=top;" vertex="1" parent="1">
          <mxGeometry x="70" y="410" width="1200" height="280" as="geometry" />
        </mxCell>
        <mxCell id="FAs4rgALgp9-eol_j8uM-3" value="" style="edgeStyle=orthogonalEdgeStyle;rounded=0;orthogonalLoop=1;jettySize=auto;html=1;" edge="1" parent="1" source="FAs4rgALgp9-eol_j8uM-1" target="FAs4rgALgp9-eol_j8uM-2">
          <mxGeometry relative="1" as="geometry" />
        </mxCell>
        <mxCell id="FAs4rgALgp9-eol_j8uM-1" value="标签" style="rounded=0;whiteSpace=wrap;html=1;" vertex="1" parent="1">
          <mxGeometry x="280" y="330" width="120" height="60" as="geometry" />
        </mxCell>
        <mxCell id="FAs4rgALgp9-eol_j8uM-5" value="" style="edgeStyle=orthogonalEdgeStyle;rounded=0;orthogonalLoop=1;jettySize=auto;html=1;" edge="1" parent="1" source="FAs4rgALgp9-eol_j8uM-2" target="FAs4rgALgp9-eol_j8uM-4">
          <mxGeometry relative="1" as="geometry" />
        </mxCell>
        <mxCell id="FAs4rgALgp9-eol_j8uM-2" value="召回规则" style="rounded=0;whiteSpace=wrap;html=1;" vertex="1" parent="1">
          <mxGeometry x="480" y="330" width="120" height="60" as="geometry" />
        </mxCell>
        <mxCell id="FAs4rgALgp9-eol_j8uM-7" value="" style="edgeStyle=orthogonalEdgeStyle;rounded=0;orthogonalLoop=1;jettySize=auto;html=1;" edge="1" parent="1" source="FAs4rgALgp9-eol_j8uM-4" target="FAs4rgALgp9-eol_j8uM-6">
          <mxGeometry relative="1" as="geometry" />
        </mxCell>
        <mxCell id="FAs4rgALgp9-eol_j8uM-4" value="策略集" style="rounded=0;whiteSpace=wrap;html=1;" vertex="1" parent="1">
          <mxGeometry x="680" y="330" width="120" height="60" as="geometry" />
        </mxCell>
        <mxCell id="FAs4rgALgp9-eol_j8uM-6" value="内容" style="rounded=0;whiteSpace=wrap;html=1;" vertex="1" parent="1">
          <mxGeometry x="880" y="330" width="120" height="60" as="geometry" />
        </mxCell>
        <mxCell id="FAs4rgALgp9-eol_j8uM-10" value="" style="edgeStyle=orthogonalEdgeStyle;rounded=0;orthogonalLoop=1;jettySize=auto;html=1;" edge="1" parent="1" source="FAs4rgALgp9-eol_j8uM-8" target="FAs4rgALgp9-eol_j8uM-9">
          <mxGeometry relative="1" as="geometry" />
        </mxCell>
        <mxCell id="FAs4rgALgp9-eol_j8uM-8" value="生成案件&lt;br&gt;RecallCaseBufferTransformJob" style="ellipse;whiteSpace=wrap;html=1;" vertex="1" parent="1">
          <mxGeometry x="120" y="440" width="200" height="70" as="geometry" />
        </mxCell>
        <mxCell id="FAs4rgALgp9-eol_j8uM-12" value="" style="edgeStyle=orthogonalEdgeStyle;rounded=0;orthogonalLoop=1;jettySize=auto;html=1;" edge="1" parent="1" source="FAs4rgALgp9-eol_j8uM-9" target="FAs4rgALgp9-eol_j8uM-11">
          <mxGeometry relative="1" as="geometry" />
        </mxCell>
        <mxCell id="FAs4rgALgp9-eol_j8uM-9" value="生成发送计划&lt;br&gt;StageInitStatusTransitionJob" style="ellipse;whiteSpace=wrap;html=1;" vertex="1" parent="1">
          <mxGeometry x="400" y="440" width="200" height="70" as="geometry" />
        </mxCell>
        <mxCell id="FAs4rgALgp9-eol_j8uM-14" value="" style="edgeStyle=orthogonalEdgeStyle;rounded=0;orthogonalLoop=1;jettySize=auto;html=1;" edge="1" parent="1" source="FAs4rgALgp9-eol_j8uM-11" target="FAs4rgALgp9-eol_j8uM-13">
          <mxGeometry relative="1" as="geometry" />
        </mxCell>
        <mxCell id="FAs4rgALgp9-eol_j8uM-16" value="" style="edgeStyle=orthogonalEdgeStyle;rounded=0;orthogonalLoop=1;jettySize=auto;html=1;" edge="1" parent="1" source="FAs4rgALgp9-eol_j8uM-11" target="FAs4rgALgp9-eol_j8uM-15">
          <mxGeometry relative="1" as="geometry" />
        </mxCell>
        <mxCell id="FAs4rgALgp9-eol_j8uM-19" style="rounded=0;orthogonalLoop=1;jettySize=auto;html=1;exitX=0;exitY=1;exitDx=0;exitDy=0;entryX=1;entryY=0;entryDx=0;entryDy=0;" edge="1" parent="1" source="FAs4rgALgp9-eol_j8uM-11" target="FAs4rgALgp9-eol_j8uM-20">
          <mxGeometry relative="1" as="geometry">
            <mxPoint x="550" y="630" as="targetPoint" />
          </mxGeometry>
        </mxCell>
        <mxCell id="FAs4rgALgp9-eol_j8uM-11" value="执行发送计划&lt;br&gt;StrategyRunJob" style="ellipse;whiteSpace=wrap;html=1;" vertex="1" parent="1">
          <mxGeometry x="680" y="440" width="200" height="70" as="geometry" />
        </mxCell>
        <mxCell id="FAs4rgALgp9-eol_j8uM-17" style="edgeStyle=orthogonalEdgeStyle;rounded=0;orthogonalLoop=1;jettySize=auto;html=1;" edge="1" parent="1" source="FAs4rgALgp9-eol_j8uM-13" target="FAs4rgALgp9-eol_j8uM-11">
          <mxGeometry relative="1" as="geometry" />
        </mxCell>
        <mxCell id="FAs4rgALgp9-eol_j8uM-23" value="" style="edgeStyle=orthogonalEdgeStyle;rounded=0;orthogonalLoop=1;jettySize=auto;html=1;" edge="1" parent="1" source="FAs4rgALgp9-eol_j8uM-13" target="FAs4rgALgp9-eol_j8uM-22">
          <mxGeometry relative="1" as="geometry" />
        </mxCell>
        <mxCell id="FAs4rgALgp9-eol_j8uM-13" value="收集变量值&lt;br&gt;CollectionDataJob" style="ellipse;whiteSpace=wrap;html=1;" vertex="1" parent="1">
          <mxGeometry x="990" y="440" width="200" height="70" as="geometry" />
        </mxCell>
        <mxCell id="FAs4rgALgp9-eol_j8uM-15" value="更新执行结果&lt;br&gt;RecallCaseScheduleSendResultUpdateJob" style="ellipse;whiteSpace=wrap;html=1;" vertex="1" parent="1">
          <mxGeometry x="680" y="590" width="200" height="70" as="geometry" />
        </mxCell>
        <mxCell id="FAs4rgALgp9-eol_j8uM-21" style="edgeStyle=orthogonalEdgeStyle;rounded=0;orthogonalLoop=1;jettySize=auto;html=1;entryX=0.5;entryY=1;entryDx=0;entryDy=0;" edge="1" parent="1" source="FAs4rgALgp9-eol_j8uM-20" target="FAs4rgALgp9-eol_j8uM-9">
          <mxGeometry relative="1" as="geometry" />
        </mxCell>
        <mxCell id="FAs4rgALgp9-eol_j8uM-20" value="状态重置&lt;br&gt;StageProcessingStatusTransitionJob" style="ellipse;whiteSpace=wrap;html=1;" vertex="1" parent="1">
          <mxGeometry x="400" y="590" width="200" height="70" as="geometry" />
        </mxCell>
        <mxCell id="FAs4rgALgp9-eol_j8uM-22" value="block超时关案&lt;br&gt;RecallCaseChangeStatusJob" style="ellipse;whiteSpace=wrap;html=1;" vertex="1" parent="1">
          <mxGeometry x="990" y="590" width="200" height="70" as="geometry" />
        </mxCell>
        <mxCell id="FAs4rgALgp9-eol_j8uM-30" value="控制面板V2" style="rounded=0;whiteSpace=wrap;html=1;verticalAlign=top;" vertex="1" parent="1">
          <mxGeometry x="70" y="150" width="1200" height="110" as="geometry" />
        </mxCell>
        <mxCell id="FAs4rgALgp9-eol_j8uM-31" value="" style="edgeStyle=orthogonalEdgeStyle;rounded=0;orthogonalLoop=1;jettySize=auto;html=1;" edge="1" source="FAs4rgALgp9-eol_j8uM-32" target="FAs4rgALgp9-eol_j8uM-34" parent="1">
          <mxGeometry relative="1" as="geometry" />
        </mxCell>
        <mxCell id="FAs4rgALgp9-eol_j8uM-32" value="受众人群" style="rounded=0;whiteSpace=wrap;html=1;" vertex="1" parent="1">
          <mxGeometry x="280" y="175" width="120" height="60" as="geometry" />
        </mxCell>
        <mxCell id="FAs4rgALgp9-eol_j8uM-33" value="" style="edgeStyle=orthogonalEdgeStyle;rounded=0;orthogonalLoop=1;jettySize=auto;html=1;" edge="1" source="FAs4rgALgp9-eol_j8uM-34" target="FAs4rgALgp9-eol_j8uM-36" parent="1">
          <mxGeometry relative="1" as="geometry" />
        </mxCell>
        <mxCell id="FAs4rgALgp9-eol_j8uM-34" value="条件/分流" style="rounded=0;whiteSpace=wrap;html=1;" vertex="1" parent="1">
          <mxGeometry x="480" y="175" width="120" height="60" as="geometry" />
        </mxCell>
        <mxCell id="FAs4rgALgp9-eol_j8uM-35" value="" style="edgeStyle=orthogonalEdgeStyle;rounded=0;orthogonalLoop=1;jettySize=auto;html=1;" edge="1" source="FAs4rgALgp9-eol_j8uM-36" target="FAs4rgALgp9-eol_j8uM-37" parent="1">
          <mxGeometry relative="1" as="geometry" />
        </mxCell>
        <mxCell id="FAs4rgALgp9-eol_j8uM-36" value="触发" style="rounded=0;whiteSpace=wrap;html=1;" vertex="1" parent="1">
          <mxGeometry x="680" y="175" width="120" height="60" as="geometry" />
        </mxCell>
        <mxCell id="FAs4rgALgp9-eol_j8uM-37" value="内容" style="rounded=0;whiteSpace=wrap;html=1;" vertex="1" parent="1">
          <mxGeometry x="880" y="175" width="120" height="60" as="geometry" />
        </mxCell>
        <mxCell id="FAs4rgALgp9-eol_j8uM-39" value="" style="shape=curlyBracket;whiteSpace=wrap;html=1;rounded=1;labelPosition=left;verticalLabelPosition=middle;align=right;verticalAlign=middle;" vertex="1" parent="1">
          <mxGeometry x="40" y="300" width="20" height="390" as="geometry" />
        </mxCell>
        <mxCell id="FAs4rgALgp9-eol_j8uM-40" value="处理引擎" style="text;html=1;align=center;verticalAlign=middle;resizable=0;points=[];autosize=1;strokeColor=none;fillColor=none;" vertex="1" parent="1">
          <mxGeometry x="-30" y="480" width="70" height="30" as="geometry" />
        </mxCell>
        <mxCell id="FAs4rgALgp9-eol_j8uM-41" value="" style="shape=curlyBracket;whiteSpace=wrap;html=1;rounded=1;labelPosition=left;verticalLabelPosition=middle;align=right;verticalAlign=middle;" vertex="1" parent="1">
          <mxGeometry x="40" y="150" width="20" height="105" as="geometry" />
        </mxCell>
        <mxCell id="FAs4rgALgp9-eol_j8uM-42" value="策略管理" style="text;html=1;align=center;verticalAlign=middle;resizable=0;points=[];autosize=1;strokeColor=none;fillColor=none;" vertex="1" parent="1">
          <mxGeometry x="-30" y="187.5" width="70" height="30" as="geometry" />
        </mxCell>
      </root>
    </mxGraphModel>
  </diagram>
</mxfile>
